REM DIRINDEX 1\2\4,1\2\5,1\2\6,1\2\7,1\3\8,1\3\9
REM DIRNAME cjc037,folder01,folder02,folder03,folder04,folder05,folder06,folder07,folder08
TITLE ""
FILE "Disc2Track05.mp3" MP3
  TRACK 01 AUDIO
    TITLE "0:"
    INDEX 01 00:00:00
  TRACK 02 AUDIO
    TITLE "4:cjc037_1010"
    INDEX 01 00:00:07
  TRACK 03 AUDIO
    TITLE "0:"
    INDEX 01 00:01:58
  TRACK 04 AUDIO
    TITLE "4:cjc037_1011"
    INDEX 01 00:02:57
  TRACK 05 AUDIO
    TITLE "0:"
    INDEX 01 00:04:40
  TRACK 06 AUDIO
    TITLE "5:cjc037_1012"
    INDEX 01 00:05:16
  TRACK 07 AUDIO
    TITLE "0:"
    INDEX 01 00:09:26
  TRACK 08 AUDIO
    TITLE "6:cjc037_1013"
    INDEX 01 00:12:60
  TRACK 09 AUDIO
    TITLE "0:"
    INDEX 01 00:16:34
  TRACK 10 AUDIO
    TITLE "7:cjc037_1014"
    INDEX 01 00:19:67
  TRACK 11 AUDIO
    TITLE "0:"
    INDEX 01 00:22:58
  TRACK 12 AUDIO
    TITLE "4:cjc037_1015"
    INDEX 01 00:25:17
  TRACK 13 AUDIO
    TITLE "0:"
    INDEX 01 00:27:10
  TRACK 14 AUDIO
    TITLE "5:cjc037_1016"
    INDEX 01 00:27:63
  TRACK 15 AUDIO
    TITLE "0:"
    INDEX 01 00:31:49
  TRACK 16 AUDIO
    TITLE "6:cjc037_1017"
    INDEX 01 00:35:08
  TRACK 17 AUDIO
    TITLE "0:"
    INDEX 01 00:38:65
  TRACK 18 AUDIO
    TITLE "7:cjc037_1018"
    INDEX 01 00:42:25
  TRACK 19 AUDIO
    TITLE "0:"
    INDEX 01 00:45:37
  TRACK 20 AUDIO
    TITLE "4:cjc037_1019"
    INDEX 01 00:48:00
  TRACK 21 AUDIO
    TITLE "0:"
    INDEX 01 00:49:61
  TRACK 22 AUDIO
    TITLE "5:cjc037_1020"
    INDEX 01 00:50:39
  TRACK 23 AUDIO
    TITLE "0:"
    INDEX 01 00:54:64
  TRACK 24 AUDIO
    TITLE "6:cjc037_1021"
    INDEX 01 00:58:26
  TRACK 25 AUDIO
    TITLE "0:"
    INDEX 01 01:01:58
  TRACK 26 AUDIO
    TITLE "7:cjc037_1022"
    INDEX 01 01:05:19
  TRACK 27 AUDIO
    TITLE "0:"
    INDEX 01 01:08:11
  TRACK 28 AUDIO
    TITLE "4:cjc037_1023"
    INDEX 01 01:10:45
  TRACK 29 AUDIO
    TITLE "0:"
    INDEX 01 01:12:11
  TRACK 30 AUDIO
    TITLE "5:cjc037_1024"
    INDEX 01 01:12:60
  TRACK 31 AUDIO
    TITLE "0:"
    INDEX 01 01:18:37
  TRACK 32 AUDIO
    TITLE "6:cjc037_1025"
    INDEX 01 01:21:72
  TRACK 33 AUDIO
    TITLE "0:"
    INDEX 01 01:25:29
  TRACK 34 AUDIO
    TITLE "7:cjc037_1026"
    INDEX 01 01:28:61
  TRACK 35 AUDIO
    TITLE "0:"
    INDEX 01 01:31:49
  TRACK 36 AUDIO
    TITLE "4:cjc037_1027"
    INDEX 01 01:34:10
  TRACK 37 AUDIO
    TITLE "0:"
    INDEX 01 01:35:67
  TRACK 38 AUDIO
    TITLE "5:cjc037_1028"
    INDEX 01 01:36:47
  TRACK 39 AUDIO
    TITLE "0:"
    INDEX 01 01:40:19
  TRACK 40 AUDIO
    TITLE "6:cjc037_1029"
    INDEX 01 01:43:54
  TRACK 41 AUDIO
    TITLE "0:"
    INDEX 01 01:46:74
  TRACK 42 AUDIO
    TITLE "7:cjc037_1030"
    INDEX 01 01:50:33
  TRACK 43 AUDIO
    TITLE "0:"
    INDEX 01 01:53:02
  TRACK 44 AUDIO
    TITLE "4:cjc037_1031"
    INDEX 01 01:55:36
  TRACK 45 AUDIO
    TITLE "0:"
    INDEX 01 01:57:13
  TRACK 46 AUDIO
    TITLE "5:cjc037_1032"
    INDEX 01 01:57:66
  TRACK 47 AUDIO
    TITLE "0:"
    INDEX 01 02:02:01
  TRACK 48 AUDIO
    TITLE "6:cjc037_1033"
    INDEX 01 02:05:36
  TRACK 49 AUDIO
    TITLE "0:"
    INDEX 01 02:08:29
  TRACK 50 AUDIO
    TITLE "7:cjc037_1034"
    INDEX 01 02:11:63
  TRACK 51 AUDIO
    TITLE "0:"
    INDEX 01 02:14:16
  TRACK 52 AUDIO
    TITLE "4:cjc037_1035"
    INDEX 01 02:16:50
  TRACK 53 AUDIO
    TITLE "0:"
    INDEX 01 02:18:31
  TRACK 54 AUDIO
    TITLE "5:cjc037_1036"
    INDEX 01 02:19:03
  TRACK 55 AUDIO
    TITLE "0:"
    INDEX 01 02:22:02
  TRACK 56 AUDIO
    TITLE "6:cjc037_1037"
    INDEX 01 02:25:35
  TRACK 57 AUDIO
    TITLE "0:"
    INDEX 01 02:28:61
  TRACK 58 AUDIO
    TITLE "7:cjc037_1038"
    INDEX 01 02:32:20
  TRACK 59 AUDIO
    TITLE "0:"
    INDEX 01 02:35:02
  TRACK 60 AUDIO
    TITLE "4:cjc037_1039"
    INDEX 01 02:37:36
  TRACK 61 AUDIO
    TITLE "0:"
    INDEX 01 02:39:22
  TRACK 62 AUDIO
    TITLE "5:cjc037_1040"
    INDEX 01 02:39:71
  TRACK 63 AUDIO
    TITLE "0:"
    INDEX 01 02:44:36
  TRACK 64 AUDIO
    TITLE "6:cjc037_1041"
    INDEX 01 02:48:01
  TRACK 65 AUDIO
    TITLE "0:"
    INDEX 01 02:52:34
  TRACK 66 AUDIO
    TITLE "7:cjc037_1042"
    INDEX 01 02:55:70
  TRACK 67 AUDIO
    TITLE "0:"
    INDEX 01 02:59:38
  TRACK 68 AUDIO
    TITLE "4:cjc037_1043"
    INDEX 01 03:01:72
  TRACK 69 AUDIO
    TITLE "0:"
    INDEX 01 03:03:48
  TRACK 70 AUDIO
    TITLE "5:cjc037_1044"
    INDEX 01 03:04:27
  TRACK 71 AUDIO
    TITLE "0:"
    INDEX 01 03:09:31
  TRACK 72 AUDIO
    TITLE "6:cjc037_1045"
    INDEX 01 03:12:64
  TRACK 73 AUDIO
    TITLE "0:"
    INDEX 01 03:16:52
  TRACK 74 AUDIO
    TITLE "7:cjc037_1046"
    INDEX 01 03:20:11
  TRACK 75 AUDIO
    TITLE "0:"
    INDEX 01 03:23:31
  TRACK 76 AUDIO
    TITLE "4:cjc037_1047"
    INDEX 01 03:25:65
  TRACK 77 AUDIO
    TITLE "0:"
    INDEX 01 03:27:50
  TRACK 78 AUDIO
    TITLE "5:cjc037_1048"
    INDEX 01 03:28:22
  TRACK 79 AUDIO
    TITLE "0:"
    INDEX 01 03:31:52
  TRACK 80 AUDIO
    TITLE "6:cjc037_1049"
    INDEX 01 03:35:10
  TRACK 81 AUDIO
    TITLE "0:"
    INDEX 01 03:38:52
  TRACK 82 AUDIO
    TITLE "7:cjc037_1050"
    INDEX 01 03:42:12
  TRACK 83 AUDIO
    TITLE "0:"
    INDEX 01 03:45:01
  TRACK 84 AUDIO
    TITLE "4:cjc037_1051"
    INDEX 01 03:47:33
  TRACK 85 AUDIO
    TITLE "0:"
    INDEX 01 03:49:12
  TRACK 86 AUDIO
    TITLE "5:cjc037_1052"
    INDEX 01 03:49:67
  TRACK 87 AUDIO
    TITLE "0:"
    INDEX 01 03:54:70
  TRACK 88 AUDIO
    TITLE "6:cjc037_1053"
    INDEX 01 03:58:29
  TRACK 89 AUDIO
    TITLE "0:"
    INDEX 01 04:02:19
  TRACK 90 AUDIO
    TITLE "7:cjc037_1054"
    INDEX 01 04:05:53
  TRACK 91 AUDIO
    TITLE "0:"
    INDEX 01 04:08:65
  TRACK 92 AUDIO
    TITLE "4:cjc037_1055"
    INDEX 01 04:11:24
  TRACK 93 AUDIO
    TITLE "0:"
    INDEX 01 04:13:13
  TRACK 94 AUDIO
    TITLE "5:cjc037_1056"
    INDEX 01 04:13:68
  TRACK 95 AUDIO
    TITLE "0:"
    INDEX 01 04:20:25
  TRACK 96 AUDIO
    TITLE "6:cjc037_1057"
    INDEX 01 04:23:64
  TRACK 97 AUDIO
    TITLE "0:"
    INDEX 01 04:29:10
  TRACK 98 AUDIO
    TITLE "7:cjc037_1058"
    INDEX 01 04:32:46
  TRACK 99 AUDIO
    TITLE "0:"
    INDEX 01 04:37:02
  TRACK 100 AUDIO
    TITLE "4:cjc037_1059"
    INDEX 01 04:39:34
  TRACK 101 AUDIO
    TITLE "0:"
    INDEX 01 04:41:25
  TRACK 102 AUDIO
    TITLE "5:cjc037_1060"
    INDEX 01 04:42:03
  TRACK 103 AUDIO
    TITLE "0:"
    INDEX 01 04:44:64
  TRACK 104 AUDIO
    TITLE "6:cjc037_1061"
    INDEX 01 04:48:27
  TRACK 105 AUDIO
    TITLE "0:"
    INDEX 01 04:51:66
  TRACK 106 AUDIO
    TITLE "7:cjc037_1062"
    INDEX 01 04:55:25
  TRACK 107 AUDIO
    TITLE "0:"
    INDEX 01 04:58:29
  TRACK 108 AUDIO
    TITLE "4:cjc037_1063"
    INDEX 01 05:00:63
  TRACK 109 AUDIO
    TITLE "0:"
    INDEX 01 05:02:37
  TRACK 110 AUDIO
    TITLE "5:cjc037_1064"
    INDEX 01 05:03:13
  TRACK 111 AUDIO
    TITLE "0:"
    INDEX 01 05:07:18
  TRACK 112 AUDIO
    TITLE "6:cjc037_1065"
    INDEX 01 05:10:54
  TRACK 113 AUDIO
    TITLE "0:"
    INDEX 01 05:15:02
  TRACK 114 AUDIO
    TITLE "7:cjc037_1066"
    INDEX 01 05:18:40
  TRACK 115 AUDIO
    TITLE "0:"
    INDEX 01 05:21:73
  TRACK 116 AUDIO
    TITLE "4:cjc037_1067"
    INDEX 01 05:24:31
  TRACK 117 AUDIO
    TITLE "0:"
    INDEX 01 05:26:24
  TRACK 118 AUDIO
    TITLE "5:cjc037_1068"
    INDEX 01 05:27:00
  TRACK 119 AUDIO
    TITLE "0:"
    INDEX 01 05:30:61
  TRACK 120 AUDIO
    TITLE "6:cjc037_1069"
    INDEX 01 05:34:19
  TRACK 121 AUDIO
    TITLE "0:"
    INDEX 01 05:37:63
  TRACK 122 AUDIO
    TITLE "7:cjc037_1070"
    INDEX 01 05:41:21
  TRACK 123 AUDIO
    TITLE "0:"
    INDEX 01 05:44:35
  TRACK 124 AUDIO
    TITLE "4:cjc037_1071"
    INDEX 01 05:46:67
  TRACK 125 AUDIO
    TITLE "0:"
    INDEX 01 05:48:57
  TRACK 126 AUDIO
    TITLE "5:cjc037_1072"
    INDEX 01 05:49:33
  TRACK 127 AUDIO
    TITLE "0:"
    INDEX 01 05:54:45
  TRACK 128 AUDIO
    TITLE "6:cjc037_1073"
    INDEX 01 05:58:04
  TRACK 129 AUDIO
    TITLE "0:"
    INDEX 01 06:02:04
  TRACK 130 AUDIO
    TITLE "7:cjc037_1074"
    INDEX 01 06:05:39
  TRACK 131 AUDIO
    TITLE "0:"
    INDEX 01 06:08:49
  TRACK 132 AUDIO
    TITLE "4:cjc037_1075"
    INDEX 01 06:11:09
  TRACK 133 AUDIO
    TITLE "0:"
    INDEX 01 06:13:00
  TRACK 134 AUDIO
    TITLE "5:cjc037_1076"
    INDEX 01 06:13:49
  TRACK 135 AUDIO
    TITLE "0:"
    INDEX 01 06:18:01
  TRACK 136 AUDIO
    TITLE "6:cjc037_1077"
    INDEX 01 06:21:34
  TRACK 137 AUDIO
    TITLE "0:"
    INDEX 01 06:24:37
  TRACK 138 AUDIO
    TITLE "7:cjc037_1078"
    INDEX 01 06:27:70
  TRACK 139 AUDIO
    TITLE "0:"
    INDEX 01 06:30:43
  TRACK 140 AUDIO
    TITLE "4:cjc037_1079"
    INDEX 01 06:33:00
  TRACK 141 AUDIO
    TITLE "0:"
    INDEX 01 06:34:65
  TRACK 142 AUDIO
    TITLE "5:cjc037_1080"
    INDEX 01 06:35:39
  TRACK 143 AUDIO
    TITLE "0:"
    INDEX 01 06:38:41
  TRACK 144 AUDIO
    TITLE "6:cjc037_1081"
    INDEX 01 06:42:01
  TRACK 145 AUDIO
    TITLE "0:"
    INDEX 01 06:45:29
  TRACK 146 AUDIO
    TITLE "7:cjc037_1082"
    INDEX 01 06:48:65
  TRACK 147 AUDIO
    TITLE "0:"
    INDEX 01 06:51:49
